<svg xmlns="http://www.w3.org/2000/svg" viewBox="0.156 0.819 134.8 21.75"><path d="M11.012 20.676c-4.72 0-8.75-4.281-8.75-8.95 0-4.653 3.945-9.02 8.716-9.02 3.136 0 5.394 1.518 7.232 3.895h2.31c-.692-1.248-1.434-2.394-2.563-3.288C16.018 1.746 13.507.82 11.012.82 5.027.819.156 5.759.156 11.709c0 5.967 4.939 10.856 10.89 10.856 2.427 0 4.804-.893 6.709-2.394 1.197-.96 2.04-2.208 2.85-3.49h-2.31c-1.822 2.377-4.147 3.995-7.283 3.995ZM34.949 9.298c-1.449-1.871-3.422-3.051-5.866-3.051-4.383 0-7.99 3.557-7.99 7.94 0 4.383 3.625 7.973 7.99 7.973 2.546 0 4.315-1.062 5.866-3.017v2.663h1.905V6.617H34.95v2.68Zm-5.967 11.109c-3.355 0-6.002-2.916-6.002-6.203 0-3.27 2.63-6.204 6.002-6.204 3.355 0 5.967 2.934 5.967 6.204 0 3.287-2.63 6.203-5.967 6.203Zm10.182 1.399h2.04V1.256h-2.04v20.55Zm9.744-2.411L43.749 6.617h-2.023l6.187 15.189h2.056l6.17-15.189H54.15l-5.242 12.778Zm8.074 2.41h2.04V6.618h-2.04v15.189Zm0-17.143h2.04V1.256h-2.04v3.406Zm10.823 1.584c-1.922 0-3.287 1.012-4.551 2.36V6.618h-1.889v15.189h2.006V12.55C63.354 10.107 65.377 8 67.838 8c3.085 0 4.636 2.68 4.636 5.445v8.361h1.887v-8.361c0-3.945-2.308-7.199-6.556-7.199Zm25.488-4.99L84.021 13.04V1.256h-2.005v20.55h2.005v-5.647l2.63-3.27 6.693 8.917h2.546L87.932 11.27 95.89 1.256h-2.597Zm3.338 20.55h1.99V1.256h-1.99v20.55Zm18.46-11.362c-1.383-2.58-4.148-4.198-7.065-4.198-4.348 0-8.024 3.625-8.024 7.974 0 4.382 3.709 7.94 8.06 7.94a8.194 8.194 0 0 0 5.612-2.26c.911-.86 1.45-1.938 1.938-3.067h-2.14c-1.079 2.107-2.984 3.573-5.446 3.573-1.5 0-2.966-.607-4.078-1.635-1.148-1.045-1.653-2.327-1.873-3.843h14.01c.001-1.585-.219-3.102-.994-4.484Zm-12.947 2.73c.608-2.848 2.849-5.174 5.918-5.174 2.579 0 5.343 1.585 5.95 5.175h-11.868Zm15.425 8.632h2.005V6.617h-2.005v15.189Zm0-17.076h2.005V1.256h-2.005V4.73Zm10.823 1.516c-1.957 0-3.322 1.012-4.603 2.36V6.618h-1.922v15.189h2.023V12.55c-.016-2.46 2.057-4.55 4.535-4.55 3.069 0 4.687 2.68 4.687 5.445v8.361H135v-8.361c0-3.945-2.344-7.199-6.608-7.199Z"/></svg>