<svg xmlns="http://www.w3.org/2000/svg" viewBox="0.545 2.004 109.4 22.64"><path d="m99.633 8.62-.205.065c-.795-1.644-1.93-2.952-3.406-3.925-1.454-.973-3.282-1.46-5.485-1.46a8.507 8.507 0 0 0-3.51.747 8.722 8.722 0 0 0-2.929 2.043c-.817.865-1.476 1.914-1.976 3.146s-.75 2.595-.75 4.086c0 1.492.25 2.855.75 4.087.5 1.232 1.159 2.292 1.976 3.178a8.948 8.948 0 0 0 2.93 2.011 8.837 8.837 0 0 0 3.509.714c2.18 0 3.952-.325 5.314-.973 1.386-.67 2.555-1.687 3.51-3.049l.204.065-.068 2.075a9.523 9.523 0 0 1-1.806 1.395c-.681.39-1.42.724-2.214 1.005-.772.26-1.579.454-2.419.584-.84.152-1.68.227-2.52.227-1.75 0-3.419-.27-5.009-.81-1.59-.541-2.986-1.298-4.19-2.27a11.13 11.13 0 0 1-2.862-3.568c-.704-1.406-1.056-2.962-1.056-4.67 0-1.709.352-3.255 1.056-4.638a11.022 11.022 0 0 1 2.862-3.6c1.204-.995 2.6-1.752 4.19-2.27 1.59-.541 3.26-.811 5.008-.811.84 0 1.68.064 2.521.194.84.13 1.647.335 2.419.616.795.26 1.533.595 2.214 1.006.681.389 1.283.843 1.806 1.362l.136 3.438Zm-75.07 6.195c-.25.108-.489.248-.716.421a.847.847 0 0 0-.34.714v3.99c-1.09 1.491-2.488 2.648-4.191 3.47-1.703.821-3.588 1.232-5.655 1.232a15.45 15.45 0 0 1-5.008-.81c-1.59-.541-2.986-1.298-4.19-2.271A11.128 11.128 0 0 1 1.6 17.993C.897 16.588.545 15.031.545 13.323c0-1.708.352-3.254 1.056-4.638a11.021 11.021 0 0 1 2.862-3.6c1.204-.994 2.6-1.751 4.19-2.27 1.59-.54 3.26-.81 5.008-.81.84 0 1.68.064 2.52.194.841.13 1.647.335 2.42.616.794.26 1.533.595 2.214 1.005a8.59 8.59 0 0 1 1.805 1.363l.137 3.437-.204.065c-.795-1.643-1.93-2.951-3.407-3.924-1.454-.973-3.282-1.46-5.485-1.46a8.505 8.505 0 0 0-3.509.746 8.722 8.722 0 0 0-2.93 2.043c-.817.865-1.476 1.914-1.975 3.146-.5 1.233-.75 2.595-.75 4.087 0 1.47.239 2.821.716 4.054.5 1.232 1.158 2.292 1.975 3.178a9.384 9.384 0 0 0 2.93 2.043 8.921 8.921 0 0 0 3.543.714c2.362 0 4.383-.433 6.064-1.297V15.95a.823.823 0 0 0-.374-.714 3.927 3.927 0 0 0-.682-.422l.031-.162c.114.02.318.042.614.065.295.02.602.041.92.065h2.93c.272-.02.533-.042.783-.065.25-.02.443-.041.579-.065l.037.163Zm24.675-12.13a3.854 3.854 0 0 0-.682.422c-.227.173-.352.497-.374.973-.021.519-.044 1.178-.068 1.978 0 .779-.01 1.665-.031 2.66 0 .994-.01 2.075-.032 3.243v3.632c-.02 1.406-.202 2.606-.545 3.6-.34.995-.795 1.827-1.362 2.497a6.58 6.58 0 0 1-1.84 1.59 8.78 8.78 0 0 1-1.976.875 7.356 7.356 0 0 1-1.805.39c-.568.064-1.011.097-1.33.097-1.294 0-2.543-.162-3.746-.487-1.204-.302-2.26-.8-3.169-1.492-.908-.691-1.635-1.589-2.18-2.691-.545-1.103-.817-2.444-.817-4.022V8.912c0-1.038-.01-1.967-.032-2.79 0-.842-.01-1.523-.03-2.042-.022-.476-.146-.8-.375-.973a3.919 3.919 0 0 0-.682-.422l.031-.162c.114.02.296.041.546.065.272.02.545.04.817.064.296 0 .58.01.852.03h1.226c.273-.02.557-.03.852-.03.296-.02.568-.041.818-.064.272-.02.465-.042.579-.065l.03.162c-.249.108-.487.248-.715.422-.204.173-.318.497-.34.973-.021.519-.044 1.2-.068 2.043v9.827c0 2.357.579 4.097 1.737 5.222 1.158 1.124 2.873 1.686 5.144 1.686.659 0 1.408-.076 2.248-.227a6.136 6.136 0 0 0 2.351-1.038c.75-.519 1.374-1.254 1.874-2.205.522-.952.783-2.217.783-3.795 0-1.708-.01-3.168-.03-4.378 0-1.233-.011-2.281-.032-3.146 0-.887-.01-1.644-.031-2.27-.02-.628-.044-1.2-.068-1.72-.02-.475-.146-.8-.375-.972a3.92 3.92 0 0 0-.68-.422l.03-.162c.25.043.534.086.852.13.318.02.613.03.886.03.25 0 .533-.01.851-.03.341-.043.636-.087.886-.13l.022.162Zm24.72 5.935-.205.065c-.795-1.644-1.93-2.952-3.406-3.925-1.454-.973-3.282-1.46-5.485-1.46a8.506 8.506 0 0 0-3.51.747 8.722 8.722 0 0 0-2.929 2.043c-.818.865-1.476 1.914-1.976 3.146s-.75 2.595-.75 4.086c0 1.492.25 2.855.75 4.087.5 1.232 1.159 2.292 1.976 3.178a8.947 8.947 0 0 0 2.93 2.011 8.837 8.837 0 0 0 3.509.714c2.18 0 3.952-.325 5.314-.973 1.386-.67 2.555-1.687 3.51-3.049l.203.065-.067 2.075a9.528 9.528 0 0 1-1.806 1.395c-.681.39-1.42.724-2.214 1.005-.773.26-1.579.454-2.42.584-.84.152-1.68.227-2.52.227-1.749 0-3.418-.27-5.008-.81-1.59-.541-2.986-1.298-4.19-2.27a11.126 11.126 0 0 1-2.862-3.568c-.704-1.406-1.056-2.962-1.056-4.67 0-1.709.352-3.255 1.056-4.638a11.02 11.02 0 0 1 2.862-3.6c1.204-.995 2.6-1.752 4.19-2.27 1.59-.541 3.26-.811 5.008-.811.84 0 1.68.064 2.52.194.841.13 1.647.335 2.42.616a10.7 10.7 0 0 1 2.214 1.006c.681.389 1.283.843 1.806 1.362l.136 3.438ZM109.9 24.09a7.73 7.73 0 0 0-.579-.064c-.25 0-.523-.01-.818-.03-.295 0-.579-.01-.852-.03h-2.043c-.273.02-.546.042-.818.065-.25.02-.443.041-.579.065l-.031-.13c.227-.108.454-.249.681-.422.227-.173.352-.497.375-.973.02-.52.031-1.06.031-1.622.021-.562.031-1.2.031-1.913V7.587c0-.713-.01-1.34-.031-1.881 0-.562-.011-1.103-.031-1.622-.021-.475-.146-.8-.375-.973a3.106 3.106 0 0 0-.681-.453l.031-.13c.136.043.329.075.579.097.272 0 .545.01.818.03.295.02.579.03.851.03h1.192c.273-.02.557-.03.852-.03.295-.02.568-.042.818-.065.272-.02.465-.041.579-.065l.031.13c-.25.108-.488.26-.716.454-.204.173-.318.497-.341.973-.02.519-.043 1.06-.067 1.622v15.243c.02.562.043 1.103.067 1.622.021.475.135.8.341.973.228.172.466.313.716.421l-.031.127Z"/></svg>