<svg xmlns="http://www.w3.org/2000/svg" viewBox="0 0.402 116.7 23.25"><path d="M105.305.862h11.431v1.822a3.267 3.267 0 0 0-1.029-.17h-6.572v8.511h6.392c.46 0 .868-.05 1.209-.136v1.813c-.29-.068-.689-.102-1.183-.102h-6.418v8.8h6.375c.35 0 .767-.05 1.226-.16v1.957h-11.414c.091-.344.137-.7.136-1.055v-20.2c0-.441-.051-.807-.153-1.08Zm-2.646 5.797-3.303-.025C99.194 4.778 98.13 2.98 95.79 2.65c-5.014-.451-6.427 5.055-6.3 9.082.129 3.88.75 9.848 5.925 9.848 2.17 0 4.256-2.23 4.188-4.112l3.056-.025c-.222 3.881-4.673 6.128-6.793 6.205-7.243.247-10.274-4.58-10.427-11.466-.135-6.238 2.418-11.78 9.576-11.78 6.128.086 7.312 3.712 7.644 6.257ZM51.146 20.66l2.188-1.83c1.14 1.882 2.076 2.74 4.34 2.74 2.298 0 4.231-1.395 4.231-3.863 0-1.218-.494-2.213-1.473-2.962-.443-.35-1.566-.954-3.337-1.796-2.647-1.268-5.225-2.92-5.225-6.239 0-4.188 3.557-6.035 7.31-6.172 2.222-.085 4.98 1.142 6.095 2.52l-2.221 1.71a4.645 4.645 0 0 0-4.086-2.45c-2.834 0-5.081 3.285-2.732 5.55.595.578 1.813 1.293 3.669 2.144 2.962 1.388 5.49 3.047 5.49 6.716a6.707 6.707 0 0 1-.988 3.532c-1.319 2.18-3.524 3.269-6.605 3.269-3.54 0-4.238-.809-6.656-2.869ZM19.976.862h11.422v1.822a3.27 3.27 0 0 0-1.029-.17h-6.57v8.511h6.391c.46 0 .869-.05 1.209-.136v1.813c-.29-.068-.69-.102-1.174-.102h-6.427v8.8h6.375c.35 0 .767-.05 1.226-.16v1.957H19.994c.084-.346.126-.7.127-1.055v-20.2c0-.441-.051-.807-.144-1.08ZM0 .862h4.154v.205c0 .187.06.434.161.749l5.856 17.627L16.18 1.74c.093-.298.144-.587.144-.877h2.017a5.526 5.526 0 0 0-.451.954l-6.86 20.47c-.069.196-.128.503-.179.911H7.447a5.727 5.727 0 0 0-.23-.91L.495 1.976A34.435 34.435 0 0 0 .008.862H0Zm44.115 11.645c2.724-.537 4.81-2.622 4.81-5.601 0-3.908-3.27-6.044-6.93-6.044h-6.69c.094.34.146.698.146 1.072v20.19c0 .434-.052.8-.145 1.072h3.983a3.936 3.936 0 0 1-.144-1.072v-9.277l1.276.136 6.673 10.213h4.01l-6.989-10.69Zm-.689-1.703c-.723.51-1.592.766-2.588.766h-1.702V2.489h1.524c1.302 0 2.315.323 3.039.97.987.894 1.49 2.102 1.49 3.617 0 1.635-.588 2.878-1.763 3.729m41.35 11.465-7.44-20.667a2.703 2.703 0 0 1-.144-.74h-3.218c0 .263-.043.544-.145.825L66.62 22.269a4.072 4.072 0 0 1-.45.928h2.076c-.008-.34.034-.655.128-.927l2.135-6.07h8.214l2.111 6.07c.111.33.162.637.162.927h4.308a4.494 4.494 0 0 1-.529-.927Zm-13.704-7.713 3.472-10.086 3.567 10.086h-7.04Z"/></svg>