<svg xmlns="http://www.w3.org/2000/svg" viewBox="0.736 0.006 63.81 26.63"><path d="M61.272 25.852 51.82.022l-.007-.016h-.186l-1.947 5.307-3.544 9.663-.009-.007c-1.228-1.076-2.96-1.748-5.143-1.998l-.666-.069.66-.084c3.6-.641 6.019-2.897 6.019-5.615 0-3.727-3.532-6.328-8.592-6.328H27.876v.189h3.06V20.32L23.505.023 23.5.006h-.186l-1.947 5.307-7.509 20.473-.046.005a8.13 8.13 0 0 1-.946.06H5.278L19.7 1.065l.107-.187H2.17v7.668h.187C2.39 4.81 4.581 1.064 9.424 1.064h5.843L.737 26.038h19.575V18.69h-.187c-.026 3.255-1.886 6.348-5.93 7.046l-.128.022 3.08-8.401h8.627l3.109 8.494h-3.067v.186h12.037v-.186h-3.08V13.039h3.554c3.616 0 5.69 1.604 5.69 4.398v2.272c0 .25.017.617.036.923v.011l-1.91 5.208h-2.495v.186h5.165v-.186h-2.468l1.74-4.742.005.073.048.428.046.282c.29 1.749.964 3.034 2.002 3.82l.15.108c.788.544 1.769.82 2.915.82 1.518 0 2.53-.375 3.365-1.26l-.11-.102c-.77.706-1.415.991-2.225.991-1.38 0-2.101-1.66-2.101-3.298v-3.184a7.102 7.102 0 0 0-.37-2.326l-.034-.098v-.004h6.31l3.11 8.494h-3.067v.186h10.416v-.186l-3.273-.001Zm-44.056-8.68 4.25-11.587 4.24 11.587h-8.49Zm17.559-4.32V1.065h2.712c3.624 0 5.537 2.137 5.537 6.179 0 4.299-1.098 5.61-4.697 5.61h-3.552Zm12.928 4.32-.018-.046a5.752 5.752 0 0 0-1.203-1.822l-.178-.176-.019-.018 3.49-9.525 4.241 11.587h-6.313Z"/></svg>